<svg width="250" height="83" viewBox="0 0 250 83" fill="none" xmlns="http://www.w3.org/2000/svg">
<g filter="url(#filter0_d)">
<rect x="4" y="0.786682" width="242" height="74.2133" rx="37.1067" fill="#A04057"/>
<rect x="4.5" y="1.28668" width="241" height="73.2133" rx="36.6067" stroke="black"/>
</g>
<path d="M47.5868 45.26C46.1828 45.26 44.8221 45.0607 43.5048 44.662C42.2048 44.2633 41.1734 43.7347 40.4108 43.076L41.5808 40.45C42.3261 41.0393 43.2361 41.5247 44.3108 41.906C45.4028 42.27 46.4948 42.452 47.5868 42.452C48.9388 42.452 49.9441 42.2353 50.6028 41.802C51.2788 41.3687 51.6168 40.7967 51.6168 40.086C51.6168 39.566 51.4261 39.1413 51.0448 38.812C50.6808 38.4653 50.2128 38.1967 49.6408 38.006C49.0688 37.8153 48.2888 37.5987 47.3008 37.356C45.9141 37.0267 44.7874 36.6973 43.9208 36.368C43.0714 36.0387 42.3348 35.5273 41.7108 34.834C41.1041 34.1233 40.8008 33.17 40.8008 31.974C40.8008 30.9687 41.0694 30.0587 41.6068 29.244C42.1614 28.412 42.9848 27.7533 44.0768 27.268C45.1861 26.7827 46.5381 26.54 48.1328 26.54C49.2421 26.54 50.3341 26.6787 51.4088 26.956C52.4834 27.2333 53.4108 27.632 54.1908 28.152L53.1248 30.778C52.3274 30.31 51.4954 29.9547 50.6288 29.712C49.7621 29.4693 48.9214 29.348 48.1068 29.348C46.7721 29.348 45.7754 29.5733 45.1168 30.024C44.4754 30.4747 44.1548 31.0727 44.1548 31.818C44.1548 32.338 44.3368 32.7627 44.7008 33.092C45.0821 33.4213 45.5588 33.6813 46.1308 33.872C46.7028 34.0627 47.4828 34.2793 48.4708 34.522C49.8228 34.834 50.9321 35.1633 51.7988 35.51C52.6654 35.8393 53.4021 36.3507 54.0088 37.044C54.6328 37.7373 54.9448 38.6733 54.9448 39.852C54.9448 40.8573 54.6674 41.7673 54.1128 42.582C53.5754 43.3967 52.7521 44.0467 51.6428 44.532C50.5334 45.0173 49.1814 45.26 47.5868 45.26ZM65.8623 30.96C67.613 30.96 69.017 31.4713 70.0743 32.494C71.1317 33.5167 71.6603 35.0333 71.6603 37.044V45H68.4103V37.46C68.4103 36.2467 68.1243 35.3367 67.5523 34.73C66.9803 34.106 66.1657 33.794 65.1083 33.794C63.9123 33.794 62.9677 34.158 62.2743 34.886C61.581 35.5967 61.2343 36.628 61.2343 37.98V45H57.9843V25.708H61.2343V32.728C61.7717 32.156 62.4303 31.7227 63.2103 31.428C64.0077 31.116 64.8917 30.96 65.8623 30.96ZM82.1501 45.182C80.7461 45.182 79.4808 44.8787 78.3541 44.272C77.2274 43.6653 76.3434 42.8247 75.7021 41.75C75.0781 40.658 74.7661 39.4273 74.7661 38.058C74.7661 36.6887 75.0781 35.4667 75.7021 34.392C76.3434 33.3173 77.2274 32.4767 78.3541 31.87C79.4808 31.2633 80.7461 30.96 82.1501 30.96C83.5714 30.96 84.8454 31.2633 85.9721 31.87C87.0988 32.4767 87.9741 33.3173 88.5981 34.392C89.2394 35.4667 89.5601 36.6887 89.5601 38.058C89.5601 39.4273 89.2394 40.658 88.5981 41.75C87.9741 42.8247 87.0988 43.6653 85.9721 44.272C84.8454 44.8787 83.5714 45.182 82.1501 45.182ZM82.1501 42.4C83.3461 42.4 84.3341 42.0013 85.1141 41.204C85.8941 40.4067 86.2841 39.358 86.2841 38.058C86.2841 36.758 85.8941 35.7093 85.1141 34.912C84.3341 34.1147 83.3461 33.716 82.1501 33.716C80.9541 33.716 79.9661 34.1147 79.1861 34.912C78.4234 35.7093 78.0421 36.758 78.0421 38.058C78.0421 39.358 78.4234 40.4067 79.1861 41.204C79.9661 42.0013 80.9541 42.4 82.1501 42.4ZM100.364 30.96C101.716 30.96 102.921 31.2547 103.978 31.844C105.053 32.4333 105.893 33.2653 106.5 34.34C107.107 35.4147 107.41 36.654 107.41 38.058C107.41 39.462 107.107 40.71 106.5 41.802C105.893 42.8767 105.053 43.7087 103.978 44.298C102.921 44.8873 101.716 45.182 100.364 45.182C98.4919 45.182 97.0099 44.558 95.9179 43.31V50.044H92.6679V31.116H95.7619V32.936C96.2992 32.2773 96.9579 31.7833 97.7379 31.454C98.5352 31.1247 99.4106 30.96 100.364 30.96ZM99.9999 42.4C101.196 42.4 102.175 42.0013 102.938 41.204C103.718 40.4067 104.108 39.358 104.108 38.058C104.108 36.758 103.718 35.7093 102.938 34.912C102.175 34.1147 101.196 33.716 99.9999 33.716C99.2199 33.716 98.5179 33.898 97.8939 34.262C97.2699 34.6087 96.7759 35.1113 96.4119 35.77C96.0479 36.4287 95.8659 37.1913 95.8659 38.058C95.8659 38.9247 96.0479 39.6873 96.4119 40.346C96.7759 41.0047 97.2699 41.516 97.8939 41.88C98.5179 42.2267 99.2199 42.4 99.9999 42.4ZM121.37 29.634V35.172H130.158V38.032H121.37V45H117.99V26.8H131.276V29.634H121.37ZM134.232 25.708H137.482V45H134.232V25.708ZM147.052 30.96C149.097 30.96 150.657 31.454 151.732 32.442C152.824 33.4127 153.37 34.886 153.37 36.862V45H150.302V43.31C149.903 43.9167 149.331 44.3847 148.586 44.714C147.858 45.026 146.974 45.182 145.934 45.182C144.894 45.182 143.984 45.0087 143.204 44.662C142.424 44.298 141.817 43.804 141.384 43.18C140.968 42.5387 140.76 41.8193 140.76 41.022C140.76 39.774 141.219 38.7773 142.138 38.032C143.074 37.2693 144.539 36.888 146.532 36.888H150.12V36.68C150.12 35.7093 149.825 34.964 149.236 34.444C148.664 33.924 147.806 33.664 146.662 33.664C145.882 33.664 145.111 33.7853 144.348 34.028C143.603 34.2707 142.97 34.6087 142.45 35.042L141.176 32.676C141.904 32.1213 142.779 31.6967 143.802 31.402C144.825 31.1073 145.908 30.96 147.052 30.96ZM146.61 42.816C147.425 42.816 148.144 42.634 148.768 42.27C149.409 41.8887 149.86 41.3513 150.12 40.658V39.046H146.766C144.894 39.046 143.958 39.6613 143.958 40.892C143.958 41.4813 144.192 41.9493 144.66 42.296C145.128 42.6427 145.778 42.816 146.61 42.816ZM170.287 31.116L164.333 45H160.979L155.025 31.116H158.405L162.721 41.412L167.167 31.116H170.287ZM178.177 45.182C176.773 45.182 175.508 44.8787 174.381 44.272C173.255 43.6653 172.371 42.8247 171.729 41.75C171.105 40.658 170.793 39.4273 170.793 38.058C170.793 36.6887 171.105 35.4667 171.729 34.392C172.371 33.3173 173.255 32.4767 174.381 31.87C175.508 31.2633 176.773 30.96 178.177 30.96C179.599 30.96 180.873 31.2633 181.999 31.87C183.126 32.4767 184.001 33.3173 184.625 34.392C185.267 35.4667 185.587 36.6887 185.587 38.058C185.587 39.4273 185.267 40.658 184.625 41.75C184.001 42.8247 183.126 43.6653 181.999 44.272C180.873 44.8787 179.599 45.182 178.177 45.182ZM178.177 42.4C179.373 42.4 180.361 42.0013 181.141 41.204C181.921 40.4067 182.311 39.358 182.311 38.058C182.311 36.758 181.921 35.7093 181.141 34.912C180.361 34.1147 179.373 33.716 178.177 33.716C176.981 33.716 175.993 34.1147 175.213 34.912C174.451 35.7093 174.069 36.758 174.069 38.058C174.069 39.358 174.451 40.4067 175.213 41.204C175.993 42.0013 176.981 42.4 178.177 42.4ZM191.789 33.144C192.725 31.688 194.372 30.96 196.729 30.96V34.054C196.452 34.002 196.201 33.976 195.975 33.976C194.71 33.976 193.722 34.3487 193.011 35.094C192.301 35.822 191.945 36.8793 191.945 38.266V45H188.695V31.116H191.789V33.144ZM203.827 45.182C202.7 45.182 201.6 45.0347 200.525 44.74C199.45 44.4453 198.592 44.0727 197.951 43.622L199.199 41.152C199.823 41.568 200.568 41.906 201.435 42.166C202.319 42.4087 203.186 42.53 204.035 42.53C205.976 42.53 206.947 42.0187 206.947 40.996C206.947 40.5107 206.696 40.1727 206.193 39.982C205.708 39.7913 204.919 39.6093 203.827 39.436C202.683 39.2627 201.747 39.0633 201.019 38.838C200.308 38.6127 199.684 38.2227 199.147 37.668C198.627 37.096 198.367 36.3073 198.367 35.302C198.367 33.9847 198.913 32.936 200.005 32.156C201.114 31.3587 202.605 30.96 204.477 30.96C205.43 30.96 206.384 31.0727 207.337 31.298C208.29 31.506 209.07 31.792 209.677 32.156L208.429 34.626C207.25 33.9327 205.924 33.586 204.451 33.586C203.498 33.586 202.77 33.7333 202.267 34.028C201.782 34.3053 201.539 34.678 201.539 35.146C201.539 35.666 201.799 36.0387 202.319 36.264C202.856 36.472 203.68 36.6713 204.789 36.862C205.898 37.0353 206.808 37.2347 207.519 37.46C208.23 37.6853 208.836 38.0667 209.339 38.604C209.859 39.1413 210.119 39.904 210.119 40.892C210.119 42.192 209.556 43.232 208.429 44.012C207.302 44.792 205.768 45.182 203.827 45.182Z" fill="white"/>
<defs>
<filter id="filter0_d" x="0" y="0.786682" width="250" height="82.2133" filterUnits="userSpaceOnUse" color-interpolation-filters="sRGB">
<feFlood flood-opacity="0" result="BackgroundImageFix"/>
<feColorMatrix in="SourceAlpha" type="matrix" values="0 0 0 0 0 0 0 0 0 0 0 0 0 0 0 0 0 0 127 0" result="hardAlpha"/>
<feOffset dy="4"/>
<feGaussianBlur stdDeviation="2"/>
<feComposite in2="hardAlpha" operator="out"/>
<feColorMatrix type="matrix" values="0 0 0 0 0 0 0 0 0 0 0 0 0 0 0 0 0 0 0.25 0"/>
<feBlend mode="normal" in2="BackgroundImageFix" result="effect1_dropShadow"/>
<feBlend mode="normal" in="SourceGraphic" in2="effect1_dropShadow" result="shape"/>
</filter>
</defs>
</svg>
