<svg width="308" height="100" viewBox="0 0 308 100" fill="none" xmlns="http://www.w3.org/2000/svg">
<g filter="url(#filter0_d)">
<rect x="4" width="300" height="92" rx="40" fill="#A04057"/>
<rect x="4.5" y="0.5" width="299" height="91" rx="39.5" stroke="black"/>
</g>
<path d="M64.0116 54.3C62.3916 54.3 60.8216 54.07 59.3016 53.61C57.8016 53.15 56.6116 52.54 55.7316 51.78L57.0816 48.75C57.9416 49.43 58.9916 49.99 60.2316 50.43C61.4916 50.85 62.7516 51.06 64.0116 51.06C65.5716 51.06 66.7316 50.81 67.4916 50.31C68.2716 49.81 68.6616 49.15 68.6616 48.33C68.6616 47.73 68.4416 47.24 68.0016 46.86C67.5816 46.46 67.0416 46.15 66.3816 45.93C65.7216 45.71 64.8216 45.46 63.6816 45.18C62.0816 44.8 60.7816 44.42 59.7816 44.04C58.8016 43.66 57.9516 43.07 57.2316 42.27C56.5316 41.45 56.1816 40.35 56.1816 38.97C56.1816 37.81 56.4916 36.76 57.1116 35.82C57.7516 34.86 58.7016 34.1 59.9616 33.54C61.2416 32.98 62.8016 32.7 64.6416 32.7C65.9216 32.7 67.1816 32.86 68.4216 33.18C69.6616 33.5 70.7316 33.96 71.6316 34.56L70.4016 37.59C69.4816 37.05 68.5216 36.64 67.5216 36.36C66.5216 36.08 65.5516 35.94 64.6116 35.94C63.0716 35.94 61.9216 36.2 61.1616 36.72C60.4216 37.24 60.0516 37.93 60.0516 38.79C60.0516 39.39 60.2616 39.88 60.6816 40.26C61.1216 40.64 61.6716 40.94 62.3316 41.16C62.9916 41.38 63.8916 41.63 65.0316 41.91C66.5916 42.27 67.8716 42.65 68.8716 43.05C69.8716 43.43 70.7216 44.02 71.4216 44.82C72.1416 45.62 72.5016 46.7 72.5016 48.06C72.5016 49.22 72.1816 50.27 71.5416 51.21C70.9216 52.15 69.9716 52.9 68.6916 53.46C67.4116 54.02 65.8516 54.3 64.0116 54.3ZM85.0988 37.8C87.1188 37.8 88.7388 38.39 89.9588 39.57C91.1788 40.75 91.7888 42.5 91.7888 44.82V54H88.0388V45.3C88.0388 43.9 87.7088 42.85 87.0488 42.15C86.3888 41.43 85.4488 41.07 84.2288 41.07C82.8488 41.07 81.7588 41.49 80.9588 42.33C80.1588 43.15 79.7588 44.34 79.7588 45.9V54H76.0088V31.74H79.7588V39.84C80.3788 39.18 81.1388 38.68 82.0388 38.34C82.9588 37.98 83.9788 37.8 85.0988 37.8ZM103.892 54.21C102.272 54.21 100.812 53.86 99.5124 53.16C98.2124 52.46 97.1924 51.49 96.4524 50.25C95.7324 48.99 95.3724 47.57 95.3724 45.99C95.3724 44.41 95.7324 43 96.4524 41.76C97.1924 40.52 98.2124 39.55 99.5124 38.85C100.812 38.15 102.272 37.8 103.892 37.8C105.532 37.8 107.002 38.15 108.302 38.85C109.602 39.55 110.612 40.52 111.332 41.76C112.072 43 112.442 44.41 112.442 45.99C112.442 47.57 112.072 48.99 111.332 50.25C110.612 51.49 109.602 52.46 108.302 53.16C107.002 53.86 105.532 54.21 103.892 54.21ZM103.892 51C105.272 51 106.412 50.54 107.312 49.62C108.212 48.7 108.662 47.49 108.662 45.99C108.662 44.49 108.212 43.28 107.312 42.36C106.412 41.44 105.272 40.98 103.892 40.98C102.512 40.98 101.372 41.44 100.472 42.36C99.5924 43.28 99.1524 44.49 99.1524 45.99C99.1524 47.49 99.5924 48.7 100.472 49.62C101.372 50.54 102.512 51 103.892 51ZM124.908 37.8C126.468 37.8 127.858 38.14 129.078 38.82C130.318 39.5 131.288 40.46 131.988 41.7C132.688 42.94 133.038 44.37 133.038 45.99C133.038 47.61 132.688 49.05 131.988 50.31C131.288 51.55 130.318 52.51 129.078 53.19C127.858 53.87 126.468 54.21 124.908 54.21C122.748 54.21 121.038 53.49 119.778 52.05V59.82H116.028V37.98H119.598V40.08C120.218 39.32 120.978 38.75 121.878 38.37C122.798 37.99 123.808 37.8 124.908 37.8ZM124.488 51C125.868 51 126.998 50.54 127.878 49.62C128.778 48.7 129.228 47.49 129.228 45.99C129.228 44.49 128.778 43.28 127.878 42.36C126.998 41.44 125.868 40.98 124.488 40.98C123.588 40.98 122.778 41.19 122.058 41.61C121.338 42.01 120.768 42.59 120.348 43.35C119.928 44.11 119.718 44.99 119.718 45.99C119.718 46.99 119.928 47.87 120.348 48.63C120.768 49.39 121.338 49.98 122.058 50.4C122.778 50.8 123.588 51 124.488 51ZM149.146 36.27V42.66H159.286V45.96H149.146V54H145.246V33H160.576V36.27H149.146ZM163.987 31.74H167.737V54H163.987V31.74ZM178.779 37.8C181.139 37.8 182.939 38.37 184.179 39.51C185.439 40.63 186.069 42.33 186.069 44.61V54H182.529V52.05C182.069 52.75 181.409 53.29 180.549 53.67C179.709 54.03 178.689 54.21 177.489 54.21C176.289 54.21 175.239 54.01 174.339 53.61C173.439 53.19 172.739 52.62 172.239 51.9C171.759 51.16 171.519 50.33 171.519 49.41C171.519 47.97 172.049 46.82 173.109 45.96C174.189 45.08 175.879 44.64 178.179 44.64H182.319V44.4C182.319 43.28 181.979 42.42 181.299 41.82C180.639 41.22 179.649 40.92 178.329 40.92C177.429 40.92 176.539 41.06 175.659 41.34C174.799 41.62 174.069 42.01 173.469 42.51L171.999 39.78C172.839 39.14 173.849 38.65 175.029 38.31C176.209 37.97 177.459 37.8 178.779 37.8ZM178.269 51.48C179.209 51.48 180.039 51.27 180.759 50.85C181.499 50.41 182.019 49.79 182.319 48.99V47.13H178.449C176.289 47.13 175.209 47.84 175.209 49.26C175.209 49.94 175.479 50.48 176.019 50.88C176.559 51.28 177.309 51.48 178.269 51.48ZM205.589 37.98L198.719 54H194.849L187.979 37.98H191.879L196.859 49.86L201.989 37.98H205.589ZM214.693 54.21C213.073 54.21 211.613 53.86 210.313 53.16C209.013 52.46 207.993 51.49 207.253 50.25C206.533 48.99 206.173 47.57 206.173 45.99C206.173 44.41 206.533 43 207.253 41.76C207.993 40.52 209.013 39.55 210.313 38.85C211.613 38.15 213.073 37.8 214.693 37.8C216.333 37.8 217.803 38.15 219.103 38.85C220.403 39.55 221.413 40.52 222.133 41.76C222.873 43 223.243 44.41 223.243 45.99C223.243 47.57 222.873 48.99 222.133 50.25C221.413 51.49 220.403 52.46 219.103 53.16C217.803 53.86 216.333 54.21 214.693 54.21ZM214.693 51C216.073 51 217.213 50.54 218.113 49.62C219.013 48.7 219.463 47.49 219.463 45.99C219.463 44.49 219.013 43.28 218.113 42.36C217.213 41.44 216.073 40.98 214.693 40.98C213.313 40.98 212.173 41.44 211.273 42.36C210.393 43.28 209.953 44.49 209.953 45.99C209.953 47.49 210.393 48.7 211.273 49.62C212.173 50.54 213.313 51 214.693 51ZM230.399 40.32C231.479 38.64 233.379 37.8 236.099 37.8V41.37C235.779 41.31 235.489 41.28 235.229 41.28C233.769 41.28 232.629 41.71 231.809 42.57C230.989 43.41 230.579 44.63 230.579 46.23V54H226.829V37.98H230.399V40.32ZM244.289 54.21C242.989 54.21 241.719 54.04 240.479 53.7C239.239 53.36 238.249 52.93 237.509 52.41L238.949 49.56C239.669 50.04 240.529 50.43 241.529 50.73C242.549 51.01 243.549 51.15 244.529 51.15C246.769 51.15 247.889 50.56 247.889 49.38C247.889 48.82 247.599 48.43 247.019 48.21C246.459 47.99 245.549 47.78 244.289 47.58C242.969 47.38 241.889 47.15 241.049 46.89C240.229 46.63 239.509 46.18 238.889 45.54C238.289 44.88 237.989 43.97 237.989 42.81C237.989 41.29 238.619 40.08 239.879 39.18C241.159 38.26 242.879 37.8 245.039 37.8C246.139 37.8 247.239 37.93 248.339 38.19C249.439 38.43 250.339 38.76 251.039 39.18L249.599 42.03C248.239 41.23 246.709 40.83 245.009 40.83C243.909 40.83 243.069 41 242.489 41.34C241.929 41.66 241.649 42.09 241.649 42.63C241.649 43.23 241.949 43.66 242.549 43.92C243.169 44.16 244.119 44.39 245.399 44.61C246.679 44.81 247.729 45.04 248.549 45.3C249.369 45.56 250.069 46 250.649 46.62C251.249 47.24 251.549 48.12 251.549 49.26C251.549 50.76 250.899 51.96 249.599 52.86C248.299 53.76 246.529 54.21 244.289 54.21Z" fill="white"/>
<defs>
<filter id="filter0_d" x="0" y="0" width="308" height="100" filterUnits="userSpaceOnUse" color-interpolation-filters="sRGB">
<feFlood flood-opacity="0" result="BackgroundImageFix"/>
<feColorMatrix in="SourceAlpha" type="matrix" values="0 0 0 0 0 0 0 0 0 0 0 0 0 0 0 0 0 0 127 0" result="hardAlpha"/>
<feOffset dy="4"/>
<feGaussianBlur stdDeviation="2"/>
<feComposite in2="hardAlpha" operator="out"/>
<feColorMatrix type="matrix" values="0 0 0 0 0 0 0 0 0 0 0 0 0 0 0 0 0 0 0.25 0"/>
<feBlend mode="normal" in2="BackgroundImageFix" result="effect1_dropShadow"/>
<feBlend mode="normal" in="SourceGraphic" in2="effect1_dropShadow" result="shape"/>
</filter>
</defs>
</svg>
